<?xml version="1.0" standalone="no"?>
<!DOCTYPE svg PUBLIC "-//W3C//DTD SVG 20010904//EN"
 "http://www.w3.org/TR/2001/REC-SVG-20010904/DTD/svg10.dtd">
<svg version="1.0" xmlns="http://www.w3.org/2000/svg"
 width="930.000000pt" height="930.000000pt" viewBox="0 0 930.000000 930.000000"
 preserveAspectRatio="xMidYMid meet">
<metadata>
Created by potrace 1.14, written by Peter Selinger 2001-2017
</metadata>
<g transform="translate(0.000000,930.000000) scale(0.100000,-0.100000)"
fill="#000000" stroke="none">
<path d="M0 9185 l0 -115 48 1 c26 0 128 7 227 15 99 8 317 20 485 28 168 8
359 20 425 26 126 11 151 13 460 31 105 6 193 13 196 15 9 5 512 32 759 40
122 3 294 1 425 -6 307 -17 575 -21 575 -10 0 6 45 7 118 3 94 -5 121 -3 132
8 8 8 27 20 43 26 16 8 27 20 27 33 l0 20 -1960 0 -1960 0 0 -115z"/>
<path d="M4430 9296 c0 -17 26 -56 37 -56 8 0 13 -12 13 -34 0 -28 4 -35 25
-40 14 -4 25 -11 25 -16 0 -6 7 -10 15 -10 8 0 15 7 15 15 0 18 4 18 48 6 20
-6 32 -6 32 0 0 5 12 9 28 9 20 0 23 3 12 10 -10 6 6 7 45 4 33 -2 84 -6 113
-9 30 -2 64 -11 77 -19 14 -9 30 -16 38 -16 7 0 30 -9 52 -20 22 -11 44 -20
51 -20 6 0 19 -9 29 -20 10 -11 26 -20 35 -20 10 0 23 -6 29 -14 7 -8 26 -17
42 -20 16 -3 43 -9 59 -12 17 -3 30 -12 30 -20 0 -8 5 -14 11 -14 6 0 26 -16
44 -36 36 -39 94 -74 124 -74 11 0 21 -5 23 -12 3 -7 48 -14 127 -19 138 -9
179 -16 197 -34 14 -13 104 -9 114 5 3 4 14 10 25 12 11 2 19 9 18 16 -4 19
41 25 160 18 61 -3 119 -6 127 -7 8 0 35 5 60 11 25 6 79 13 120 15 41 3 95 7
120 11 55 7 84 7 178 -2 50 -4 72 -3 72 5 0 6 -7 11 -15 11 -11 0 -15 11 -15
40 0 36 -2 40 -25 40 -18 0 -25 5 -25 20 0 11 -6 20 -14 20 -8 0 -21 9 -28 19
-8 11 -36 26 -63 34 -46 13 -50 17 -48 43 2 21 0 25 -7 14 -8 -12 -12 -11 -30
8 -12 13 -33 22 -50 22 -16 0 -32 5 -35 10 -3 6 -1 10 5 10 6 0 8 5 5 10 -3 6
-15 10 -26 10 -11 0 -22 7 -25 15 -10 25 -76 59 -134 69 -55 9 -1840 20 -1840
12z"/>
<path d="M6701 9287 c14 -7 32 -17 40 -23 8 -7 34 -15 59 -19 25 -4 54 -15 65
-25 20 -17 63 -31 98 -31 9 0 15 -4 12 -10 -4 -5 -1 -9 6 -9 7 0 22 -8 33 -18
12 -10 40 -24 63 -31 23 -6 55 -22 70 -34 15 -13 46 -32 68 -42 22 -10 58 -30
80 -45 22 -15 51 -31 65 -35 14 -4 34 -14 45 -21 11 -8 27 -14 37 -14 19 0 85
-28 108 -46 8 -7 51 -26 95 -44 72 -29 87 -32 156 -27 42 3 84 9 95 14 78 40
93 43 294 53 113 6 225 15 250 21 46 11 159 5 215 -11 185 -52 343 -132 415
-209 8 -9 27 -24 43 -34 15 -9 27 -24 27 -32 0 -8 8 -15 18 -15 10 0 25 -12
33 -26 7 -15 31 -45 51 -67 21 -21 38 -43 38 -48 0 -5 5 -9 10 -9 7 0 10 148
10 425 l0 425 -1312 -1 c-1011 0 -1307 -3 -1287 -12z"/>
<path d="M4360 9086 c14 -15 25 -31 24 -34 -3 -20 25 -43 59 -49 27 -4 37 -10
37 -24 0 -13 12 -21 40 -29 29 -8 40 -16 40 -30 0 -15 7 -20 25 -20 14 0 25
-4 25 -10 0 -5 7 -10 15 -10 8 0 15 -4 15 -9 0 -13 107 -34 136 -27 39 10 29
33 -17 41 -31 5 -38 10 -28 17 8 5 10 11 4 14 -59 25 -175 136 -175 168 0 13
-11 16 -64 16 -35 0 -85 3 -112 6 l-49 7 25 -27z m67 -32 c-3 -3 -12 -4 -19
-1 -8 3 -5 6 6 6 11 1 17 -2 13 -5z"/>
<path d="M2395 8833 c-49 -7 -141 -16 -202 -19 -89 -5 -113 -10 -113 -21 0
-12 16 -13 93 -8 50 3 211 10 357 15 306 11 430 20 430 30 0 22 -429 24 -565
3z"/>
<path d="M1555 8788 c-71 -4 -220 -13 -330 -19 -110 -6 -227 -12 -260 -14
-156 -10 -191 -11 -207 -3 -11 5 -40 3 -75 -6 -33 -8 -135 -17 -233 -20 -232
-8 -400 -16 -427 -22 -18 -3 -23 -11 -23 -34 0 -29 1 -30 48 -30 46 1 136 11
217 25 29 5 36 4 25 -4 -12 -9 -9 -11 13 -11 16 0 26 4 23 9 -9 13 57 21 194
22 135 1 307 11 465 28 55 6 174 12 265 15 162 5 400 22 431 31 8 3 59 7 113
10 99 5 168 23 96 25 -147 5 -222 4 -335 -2z"/>
<path d="M653 8663 c9 -2 23 -2 30 0 6 3 -1 5 -18 5 -16 0 -22 -2 -12 -5z"/>
<path d="M3585 8479 c-22 -4 -54 -5 -71 -3 -18 3 -35 1 -38 -4 -4 -6 -28 -8
-61 -5 -35 4 -55 2 -55 -4 0 -7 -72 -13 -192 -17 -106 -4 -233 -11 -283 -17
-49 -5 -200 -11 -335 -14 -135 -2 -339 -10 -455 -17 -115 -6 -238 -11 -272
-10 -35 0 -63 -3 -63 -7 0 -5 -71 -12 -157 -15 -87 -4 -282 -14 -434 -22 -152
-8 -280 -14 -285 -13 -5 2 -38 -1 -74 -4 -36 -4 -186 -12 -335 -17 -148 -6
-316 -15 -373 -22 l-102 -12 0 -68 c0 -39 4 -67 9 -64 5 4 87 8 183 11 95 3
187 8 203 11 17 3 66 7 110 10 44 2 145 8 225 14 80 5 226 15 325 20 99 6 255
17 347 25 92 8 290 20 440 25 263 10 388 21 698 60 41 5 143 12 225 15 83 3
188 10 234 16 47 6 180 14 295 18 116 4 222 9 236 10 14 1 105 3 203 4 166 2
178 4 199 24 20 20 20 23 5 46 -10 16 -29 26 -54 30 -52 9 -249 7 -298 -4z"/>
<path d="M4319 8066 c-3 -3 -72 -10 -155 -16 -82 -5 -196 -14 -254 -20 -203
-19 -625 -46 -868 -56 -142 -5 -454 -23 -497 -29 -53 -6 -399 -24 -600 -30
-202 -7 -272 -12 -283 -19 -5 -3 -80 -8 -168 -11 -87 -3 -202 -10 -254 -15
-52 -6 -223 -17 -380 -25 -157 -8 -414 -22 -572 -32 l-288 -17 0 -104 0 -105
143 7 c78 4 198 11 267 16 69 6 190 13 269 16 80 3 158 7 175 9 55 7 266 24
451 35 99 6 311 20 470 30 160 11 441 29 625 40 184 11 376 25 425 30 50 5
182 14 295 20 113 6 257 18 320 26 63 8 203 17 310 19 107 2 260 7 340 10 80
4 217 8 305 11 272 7 369 12 388 19 19 8 22 30 7 48 -6 7 -21 32 -33 56 -37
74 -70 85 -267 89 -91 2 -168 1 -171 -2z"/>
<path d="M6851 7712 c-14 -27 25 -60 64 -52 20 4 26 8 17 13 -7 5 -10 13 -7
18 4 5 -5 9 -19 9 -16 0 -26 6 -26 15 0 21 -17 19 -29 -3z"/>
<path d="M5150 7549 c-19 -5 -78 -11 -130 -14 -155 -10 -234 -14 -255 -15 -17
0 -17 -2 -5 -10 8 -5 29 -8 45 -5 17 2 110 7 208 9 206 6 404 25 385 38 -17
10 -203 8 -248 -3z"/>
<path d="M4640 7509 c0 -6 -22 -10 -52 -9 -80 2 -331 -10 -348 -17 -23 -8
-350 -34 -495 -39 -71 -2 -179 -9 -240 -16 -60 -6 -177 -13 -260 -14 -144 -2
-240 -10 -257 -20 -4 -3 -61 -7 -125 -10 -65 -2 -149 -6 -188 -9 -38 -2 -110
-7 -160 -10 -49 -3 -99 -8 -110 -11 -11 -3 -121 -9 -245 -15 -124 -5 -268 -14
-320 -19 -52 -6 -144 -12 -204 -15 -73 -3 -112 -9 -118 -17 -6 -11 -10 -10
-16 0 -7 10 -31 11 -118 3 -115 -11 -395 -27 -729 -41 -110 -5 -229 -14 -265
-19 -36 -6 -97 -11 -136 -11 -39 0 -112 -3 -162 -6 l-92 -7 0 -29 c0 -27 3
-29 27 -24 87 16 645 57 775 58 68 0 116 4 112 9 -3 5 41 9 103 9 68 0 123 6
148 15 26 9 83 14 165 15 69 0 172 6 230 11 58 6 161 12 230 14 202 7 475 25
613 41 70 9 139 13 155 10 15 -4 43 -2 62 4 19 6 89 13 155 16 66 2 188 10
270 16 83 6 173 12 200 13 57 3 137 11 246 25 41 5 99 7 129 4 30 -3 93 -1
140 5 47 6 150 15 230 21 80 5 201 14 270 20 69 6 166 12 215 15 139 9 209 15
214 21 7 6 -20 24 -36 24 -7 0 -13 -5 -13 -11z m-2853 -205 c-3 -3 -12 -4 -19
-1 -8 3 -5 6 6 6 11 1 17 -2 13 -5z"/>
<path d="M9040 7280 c0 -11 -8 -28 -18 -38 -10 -10 -23 -45 -30 -77 -40 -189
-80 -323 -108 -356 -8 -8 -14 -20 -14 -27 0 -12 -100 -102 -114 -102 -16 0
-86 -83 -86 -101 0 -9 -6 -22 -13 -28 -8 -6 -19 -28 -26 -49 -7 -21 -26 -53
-42 -71 -16 -19 -29 -38 -29 -42 0 -33 -132 -154 -190 -175 -28 -10 -50 -22
-50 -26 0 -4 -11 -8 -24 -8 -14 0 -27 -4 -30 -9 -3 -4 -24 -11 -46 -15 -23 -3
-49 -11 -58 -16 -9 -5 -53 -14 -97 -19 -44 -6 -102 -15 -130 -21 -27 -6 -94
-15 -148 -20 -54 -5 -104 -13 -110 -18 -7 -5 -57 -12 -112 -16 -55 -4 -125
-11 -155 -16 -30 -5 -85 -11 -123 -15 -37 -4 -65 -10 -63 -13 2 -4 -44 -8
-102 -8 -59 -1 -125 -7 -147 -14 -38 -12 -144 -23 -330 -36 -44 -3 -82 -10
-86 -15 -3 -5 -53 -16 -112 -24 -59 -8 -129 -20 -154 -26 -26 -5 -86 -14 -133
-19 -109 -12 -179 -27 -199 -43 -52 -41 -195 -76 -233 -56 -18 10 -192 4 -343
-12 -49 -5 -115 -11 -145 -13 -30 -3 -80 -10 -110 -16 -30 -6 -98 -14 -150
-17 -52 -3 -97 -8 -100 -13 -5 -7 -112 -23 -268 -39 -46 -5 -85 -11 -88 -14
-3 -2 35 -3 83 -1 48 1 153 2 233 1 288 -3 507 3 595 17 96 16 214 33 283 42
23 3 42 11 42 16 0 18 162 -3 218 -28 18 -9 66 -16 110 -17 108 -2 554 14 572
20 8 3 161 7 340 9 179 3 354 9 390 15 36 6 124 12 195 15 172 5 240 11 263
23 23 12 458 33 523 25 36 -5 49 -3 49 6 0 9 15 10 60 5 36 -4 60 -3 60 3 0 5
25 12 55 15 30 3 60 9 67 13 7 5 20 10 29 11 9 1 39 14 66 27 46 24 60 25 214
27 90 0 178 -4 195 -9 18 -6 37 -6 45 -1 8 5 31 9 52 9 l37 0 0 669 0 669 -31
11 c-18 6 -44 11 -58 11 -14 0 -50 14 -80 30 -64 35 -91 38 -91 10z m-643
-1496 c-3 -3 -12 -4 -19 -1 -8 3 -5 6 6 6 11 1 17 -2 13 -5z"/>
<path d="M4120 5693 c-55 -5 -142 -24 -175 -38 -40 -17 -332 -73 -470 -90 -25
-3 -41 5 -27 14 5 3 -56 7 -137 9 -81 1 -188 6 -237 11 -49 4 -145 4 -214 -1
-103 -7 -133 -5 -172 8 -30 10 -60 13 -83 8 -20 -3 -75 -8 -123 -9 -48 -1
-127 -9 -177 -18 -105 -19 -222 -21 -331 -6 -63 9 -106 7 -224 -7 -80 -9 -147
-21 -150 -25 -3 -4 -77 -10 -165 -13 -231 -6 -459 -21 -474 -30 -28 -18 -170
-46 -233 -46 -37 0 -87 -6 -110 -14 -24 -8 -113 -21 -198 -30 -85 -9 -177 -20
-205 -26 -27 -5 -79 -14 -115 -21 -36 -6 -73 -13 -82 -16 -17 -4 -18 -23 -18
-229 l0 -224 58 -1 c31 0 148 -1 259 -2 155 -2 204 1 208 11 5 14 32 16 37 3
2 -5 20 -12 41 -16 36 -7 37 -7 37 24 0 17 4 31 9 31 5 0 17 7 26 17 12 12 19
13 24 4 4 -6 15 -9 24 -5 9 3 17 2 17 -4 0 -6 -6 -13 -12 -15 -7 -3 6 -6 30
-6 25 -1 42 4 42 10 0 8 14 10 40 6 22 -3 40 -1 40 4 0 5 -8 9 -17 10 -10 0
-13 3 -6 5 7 3 20 1 29 -4 17 -10 74 6 74 20 0 4 20 8 45 8 29 0 67 10 107 29
35 17 84 36 111 43 26 6 47 16 47 21 0 4 5 5 10 2 5 -3 10 -1 10 5 0 7 18 11
50 9 39 -2 55 2 75 19 14 12 29 22 34 22 27 0 195 55 250 82 44 21 87 33 135
38 39 4 87 12 106 18 196 62 240 69 240 38 0 -13 -52 -42 -94 -52 -38 -9 -94
-45 -101 -65 -4 -11 -27 -21 -68 -28 -34 -7 -72 -17 -85 -22 -13 -5 -34 -9
-47 -9 -15 0 -25 -6 -25 -14 0 -17 -22 -26 -60 -26 -32 0 -77 -17 -98 -37 -7
-7 -33 -13 -57 -13 -28 0 -50 -6 -61 -17 -35 -36 -70 -53 -109 -53 -22 0 -51
-7 -63 -16 -15 -11 -32 -13 -54 -9 -28 7 -30 5 -25 -14 4 -17 1 -21 -16 -21
-12 0 -41 -9 -64 -19 -23 -11 -44 -17 -47 -14 -3 3 -12 0 -20 -6 -9 -7 -42
-15 -76 -18 -40 -4 -60 -10 -60 -19 0 -7 -19 -19 -42 -25 -24 -7 -47 -16 -53
-19 -24 -17 -148 -50 -185 -50 -27 0 -43 -5 -46 -15 -4 -8 -15 -15 -25 -15
-11 0 -22 -6 -25 -14 -3 -9 -36 -15 -112 -20 -109 -6 -144 -15 -246 -60 -62
-28 -143 -34 -190 -16 l-26 10 0 -775 c0 -426 2 -775 4 -775 4 0 72 25 258 93
54 20 126 49 160 65 35 16 88 37 118 47 30 10 60 21 65 25 31 21 247 83 273
78 19 -5 -39 -34 -210 -104 -62 -25 -138 -57 -168 -71 -71 -33 -247 -103 -257
-103 -5 0 -61 -23 -125 -51 l-118 -52 0 -567 0 -567 28 -6 c152 -33 1331 -275
1567 -322 132 -26 402 -77 535 -101 47 -9 116 -22 153 -31 79 -18 214 -23 225
-8 8 12 31 26 87 56 22 12 47 27 55 34 8 6 31 18 50 25 39 16 64 36 53 43 -5
2 -25 10 -46 17 -21 6 -36 17 -34 23 6 19 138 13 269 -11 197 -37 198 -26 3
28 -131 36 -145 41 -145 55 0 19 24 22 106 12 39 -4 81 -4 94 1 22 8 20 10
-28 26 -81 27 -62 41 55 41 56 0 104 3 108 7 4 3 -18 14 -49 24 -46 14 -54 20
-44 32 10 11 31 13 108 8 111 -8 147 4 73 24 -62 17 -73 27 -49 46 14 10 47
14 107 14 78 0 96 4 171 36 45 20 90 40 98 45 8 5 23 12 33 15 9 4 17 10 17
15 0 5 6 6 13 3 8 -3 20 2 27 11 7 8 18 15 26 15 7 0 29 14 49 31 20 18 38 29
42 26 3 -4 14 3 24 14 10 12 22 18 28 15 5 -4 12 -2 15 3 6 10 73 43 151 76
77 33 219 105 207 105 -23 0 -12 17 26 42 20 14 87 51 147 83 61 32 127 69
147 82 21 12 39 23 42 23 2 0 30 16 62 35 63 38 114 44 197 25 23 -5 101 -20
172 -34 72 -14 261 -50 420 -81 729 -141 965 -186 1175 -225 124 -22 236 -43
251 -46 23 -4 27 1 48 51 55 133 182 286 286 345 68 38 171 74 290 100 166 36
546 26 715 -20 216 -58 292 -91 355 -156 47 -49 49 -54 45 -121 -4 -79 25
-107 65 -63 22 24 44 14 67 -32 60 -122 78 -180 59 -192 -12 -8 -34 30 -26 44
3 6 1 10 -5 10 -6 0 -8 4 -5 10 11 18 -53 70 -86 70 -35 0 -116 -70 -104 -90
5 -9 1 -10 -14 -5 -18 5 -21 2 -21 -19 0 -14 -6 -26 -13 -26 -7 0 -25 -11 -40
-25 -15 -14 -27 -21 -27 -15 0 15 -32 12 -54 -5 -26 -19 -36 -19 -36 1 0 14
-11 16 -67 12 l-68 -3 -2 39 c-3 43 -10 57 -21 39 -4 -6 -45 -14 -92 -18 -113
-8 -138 -14 -119 -26 12 -7 12 -9 -2 -9 -26 0 -69 -24 -75 -42 -3 -10 3 -45
13 -78 l17 -60 64 0 64 0 -16 -25 c-17 -26 -22 -95 -7 -95 5 0 11 10 14 22 10
36 16 17 21 -61 2 -41 9 -77 15 -80 15 -9 -2 -326 -18 -345 -16 -20 -26 -112
-23 -223 2 -55 -1 -94 -8 -98 -5 -3 -10 -17 -10 -31 0 -17 -6 -24 -18 -24 -11
0 -27 -9 -37 -20 -10 -11 -22 -20 -28 -20 -5 0 -23 -6 -40 -14 -88 -38 -104
-41 -244 -41 -79 0 -143 -1 -143 -2 0 -17 180 -70 525 -156 121 -31 265 -67
320 -81 198 -52 281 -74 330 -84 102 -23 551 -132 581 -142 17 -5 36 -10 42
-10 9 0 12 89 12 355 l0 354 -37 10 c-21 5 -112 23 -203 40 -91 17 -199 37
-240 45 -41 8 -92 17 -113 21 -21 3 -41 13 -44 21 -3 8 8 48 25 88 54 127 74
253 77 488 3 177 6 212 22 238 12 22 25 30 45 30 22 0 291 -47 436 -76 l32 -6
0 364 0 365 -92 18 c-51 9 -167 30 -258 46 -279 48 -674 119 -697 124 -20 5
-22 13 -28 145 -7 128 -9 138 -21 114 -8 -14 -14 -55 -14 -90 0 -34 -4 -66
-10 -69 -6 -3 -10 -17 -10 -31 0 -19 -5 -24 -24 -24 -14 0 -28 -4 -31 -10 -11
-18 -35 -11 -35 10 0 17 -7 20 -42 20 -24 0 -63 7 -87 15 -33 12 -46 13 -57 4
-8 -6 -26 -9 -40 -6 -30 5 -95 -18 -107 -39 -4 -8 -16 -14 -26 -14 -23 0 -45
-25 -35 -41 4 -7 3 -9 -3 -6 -6 4 -16 -6 -22 -24 -6 -17 -15 -28 -21 -24 -6 3
-17 -1 -26 -9 -8 -9 -22 -16 -30 -16 -8 0 -14 -7 -14 -16 0 -12 -6 -15 -22
-10 -13 3 -26 6 -31 6 -4 0 -5 12 -1 28 4 18 3 23 -4 14 -7 -10 -14 -5 -31 23
-11 20 -21 40 -21 46 0 5 -3 8 -7 7 -11 -4 -54 28 -48 34 3 2 -1 5 -7 5 -7 0
-32 5 -56 11 -59 14 -122 4 -151 -24 -13 -13 -28 -21 -34 -17 -6 4 -8 0 -4
-10 4 -10 0 -18 -12 -22 -23 -7 -45 -93 -50 -187 -1 -23 -6 -28 -26 -28 -14 0
-34 9 -45 20 -11 11 -29 20 -40 20 -11 0 -20 7 -20 15 0 7 -6 18 -13 22 -27
17 -38 64 -52 222 -8 91 -19 169 -25 175 -13 13 -13 59 1 73 8 8 12 113 15
328 2 177 8 333 14 355 6 22 22 53 36 69 24 29 26 66 4 96 -4 6 -13 26 -19 46
-15 46 -83 138 -119 161 -24 15 -33 16 -60 6 -18 -7 -32 -15 -32 -19 0 -3 -20
-12 -45 -19 -25 -7 -45 -16 -45 -20 0 -9 -47 -18 -127 -27 -32 -3 -53 -10 -53
-17 0 -20 -91 -46 -161 -46 -102 0 -239 29 -239 50 0 4 -14 13 -30 20 -24 10
-33 10 -45 0 -11 -9 -40 -10 -107 -5 -51 4 -102 9 -113 12 -65 14 -121 11
-144 -9 l-25 -19 30 -24 c21 -18 25 -24 12 -25 -9 0 -18 -3 -20 -7 -1 -5 -19
-16 -38 -26 -19 -10 -47 -25 -62 -34 -24 -16 -29 -16 -60 -2 -30 15 -37 15
-78 1 -25 -9 -60 -24 -78 -34 -18 -10 -39 -18 -47 -18 -8 0 -15 -4 -15 -10 0
-5 -10 -10 -23 -10 -13 0 -27 -4 -32 -9 -8 -7 -56 -19 -145 -35 -8 -2 -22 -6
-30 -9 -63 -24 -221 -28 -335 -9 -119 20 -218 34 -260 37 -81 5 -140 19 -152
34 -7 9 -13 11 -13 5 0 -7 -11 -15 -25 -18 -26 -7 -35 -26 -11 -26 8 0 17 -7
20 -16 7 -19 -22 -47 -98 -94 -31 -19 -56 -38 -56 -42 0 -5 -6 -8 -12 -8 -13
-1 -63 -70 -92 -127 -25 -49 -40 -42 -31 15 21 146 85 294 165 385 70 79 218
151 388 188 66 14 71 19 47 43 -8 8 -15 19 -15 24 0 5 -6 15 -13 21 -8 6 -19
29 -26 51 -6 22 -17 40 -22 40 -15 0 -48 41 -49 60 -2 37 -66 70 -200 101 -30
7 -59 16 -64 21 -14 12 -146 10 -146 -2 0 -5 -11 -10 -24 -10 -14 0 -28 -4
-31 -10 -3 -5 -14 -10 -23 -10 -18 0 -122 -91 -122 -107 0 -5 -17 -15 -37 -22
-21 -8 -59 -31 -84 -52 -26 -22 -52 -39 -58 -39 -6 0 -11 -4 -11 -9 0 -5 -18
-12 -40 -16 -22 -4 -42 -10 -45 -15 -6 -9 -98 -42 -185 -65 -36 -10 -90 -26
-120 -35 -30 -10 -70 -21 -87 -25 -18 -4 -35 -11 -38 -16 -8 -12 -35 -11 -35
1 0 9 13 38 92 195 35 70 52 80 206 130 81 26 156 51 167 55 11 5 45 14 75 21
30 7 60 16 65 20 6 3 33 12 62 19 29 6 69 20 90 31 20 10 47 19 58 19 12 0 25
4 31 9 5 5 34 16 64 26 30 10 82 30 116 46 34 15 81 33 105 39 24 6 83 30 130
53 114 56 167 126 190 250 20 115 -20 348 -76 429 -14 20 -25 41 -25 47 0 15
-42 41 -67 41 -13 0 -23 4 -23 9 0 5 -29 14 -65 20 -36 6 -70 13 -77 15 -7 1
-29 1 -48 -1z m-1190 -317 c0 -11 -19 -15 -25 -6 -3 5 1 10 9 10 9 0 16 -2 16
-4z m-2103 -402 c-3 -3 -12 -4 -19 -1 -8 3 -5 6 6 6 11 1 17 -2 13 -5z m6044
-901 c29 -75 6 -173 -51 -213 -26 -18 -28 -19 -42 -2 -53 60 -9 242 58 242 17
0 28 -8 35 -27z m-238 -101 c40 -44 27 -149 -27 -216 -54 -69 -96 -36 -96 76
0 109 74 194 123 140z m-576 -103 c15 -6 30 -10 32 -9 2 1 14 -16 26 -37 17
-27 21 -42 14 -55 -5 -9 -9 -21 -8 -25 1 -4 -5 -24 -14 -43 -8 -19 -14 -38
-11 -41 2 -3 -7 -11 -20 -18 -58 -31 -151 42 -148 116 2 56 21 92 56 108 39
17 39 17 73 4z m-539 -29 c30 -48 -2 -208 -44 -224 -22 -8 -44 4 -49 28 -13
59 -13 82 5 128 31 82 63 107 88 68z m662 -123 c0 -16 -7 -30 -15 -34 -23 -8
-26 -1 -19 50 6 42 8 45 20 30 7 -10 14 -31 14 -46z m-1955 -1 c13 -14 25 -23
28 -20 9 9 37 -46 42 -83 3 -29 2 -34 -6 -20 -6 9 -8 21 -5 25 3 5 -1 9 -9 9
-10 0 -11 -5 -4 -18 5 -11 5 -27 0 -42 -6 -14 -7 -28 -4 -31 4 -3 0 -6 -8 -6
-12 0 -12 -2 1 -10 22 -14 5 -23 -19 -11 -17 10 -20 9 -15 -4 5 -11 -1 -15
-19 -15 -40 0 -69 18 -99 59 -37 51 -44 120 -17 155 11 14 25 24 30 21 5 -4 9
-1 9 4 0 6 16 11 36 11 26 0 43 -7 59 -24z m2615 -27 c0 -5 5 -7 10 -4 11 7
13 -24 4 -49 -3 -9 -13 -16 -21 -16 -8 0 -11 -4 -8 -10 3 -5 -2 -10 -12 -11
-11 0 -13 -3 -5 -6 10 -4 10 -8 1 -19 -30 -36 -41 -8 -40 100 1 50 26 71 53
44 10 -10 18 -23 18 -29z m-1582 15 c35 -36 6 -203 -42 -244 -26 -20 -55 -2
-66 42 -18 64 4 154 49 200 21 22 38 22 59 2z m-563 -44 c21 0 72 -47 90 -82
19 -40 19 -92 0 -108 -9 -7 -14 -19 -11 -26 7 -18 -20 -37 -44 -31 -11 3 -20
1 -20 -4 0 -14 -17 -11 -65 11 -74 34 -107 129 -70 200 15 29 65 53 93 44 8
-2 20 -4 27 -4z m1924 -36 c17 11 14 -96 -4 -120 -8 -10 -15 -25 -15 -33 0
-15 -37 -51 -52 -51 -5 0 -13 12 -18 26 -26 67 3 191 42 181 10 -3 18 0 18 6
0 8 4 7 9 -2 5 -7 14 -10 20 -7z m-2689 -23 c0 -11 -4 -23 -10 -26 -6 -4 -10
5 -10 19 0 14 5 26 10 26 6 0 10 -9 10 -19z m1460 -111 c26 -63 -8 -197 -55
-218 -32 -15 -45 -2 -51 54 -8 66 11 131 48 166 38 35 43 35 58 -2z m-1495
-117 c-4 -44 -1 -95 9 -143 16 -83 38 -162 46 -170 3 -3 18 -30 35 -60 16 -30
36 -67 44 -81 13 -23 13 -27 -5 -45 -11 -11 -27 -18 -36 -16 -9 2 -23 -6 -30
-17 -7 -12 -23 -21 -36 -21 -29 0 -49 -19 -58 -54 -7 -28 -19 -34 -27 -13 -4
10 -7 10 -18 0 -7 -7 -23 -13 -36 -13 -13 0 -23 -4 -23 -10 0 -6 -60 -10 -160
-10 -112 0 -160 -3 -160 -11 0 -15 -62 -3 -75 15 -9 12 -48 36 -58 36 -3 0 -7
-10 -10 -21 -5 -18 -8 -19 -19 -8 -7 8 -21 26 -31 42 -18 28 -42 36 -50 15 -2
-8 -8 -9 -13 -4 -5 5 -4 11 4 13 18 7 15 19 -13 47 -14 14 -25 35 -25 46 0 20
26 79 39 90 3 3 12 14 19 25 7 11 22 35 33 53 12 17 25 32 30 32 5 0 9 9 9 20
0 11 4 20 10 20 5 0 19 10 32 23 13 12 43 29 68 37 25 7 50 15 55 17 6 2 25 6
43 9 17 4 32 12 32 19 0 8 29 19 73 29 44 10 80 24 89 36 9 10 34 22 55 25 21
4 50 11 65 17 15 5 32 7 37 3 7 -3 11 2 11 14 0 14 6 21 20 21 16 0 20 7 20
30 0 17 3 30 6 30 3 0 2 -30 -1 -67z m1821 -38 c16 -64 -28 -145 -79 -145 -42
0 -41 28 3 50 40 20 53 45 52 92 -1 35 15 37 24 3z m-205 -40 c12 8 11 -71 -2
-117 -14 -51 -49 -91 -72 -83 -14 6 -17 19 -17 72 0 69 20 123 46 123 8 0 18
8 22 18 6 16 7 16 10 -1 2 -9 8 -15 13 -12z m-1361 -117 c0 -6 3 -9 6 -5 3 3
14 -3 25 -14 13 -13 20 -40 25 -98 6 -72 5 -79 -12 -83 -45 -10 -114 66 -114
126 0 40 27 86 50 86 11 0 20 -5 20 -12z m1120 -70 c0 -59 -23 -132 -50 -160
-40 -39 -57 -36 -71 14 -17 65 3 143 49 186 l35 34 19 -24 c9 -12 18 -35 18
-50z m-555 1 c50 -26 105 -140 76 -158 -6 -4 -9 -15 -5 -24 3 -9 1 -17 -4 -17
-6 0 -14 -9 -17 -21 -5 -14 -13 -19 -26 -16 -10 3 -19 1 -19 -4 0 -5 -15 -6
-32 -2 -91 18 -155 135 -115 213 24 47 83 59 142 29z m911 -94 c60 -38 120
-65 223 -101 67 -23 -166 8 -329 45 -31 6 -35 11 -33 35 2 32 29 66 51 66 9 0
48 -20 88 -45z m-1386 4 c0 -5 -4 -9 -10 -9 -5 0 -10 7 -10 16 0 8 5 12 10 9
6 -3 10 -10 10 -16z m-263 -311 c-3 -7 -5 -2 -5 12 0 14 2 19 5 13 2 -7 2 -19
0 -25z m-50 -70 c-3 -8 -6 -5 -6 6 -1 11 2 17 5 13 3 -3 4 -12 1 -19z m-254
-5 c-7 -2 -21 -2 -30 0 -10 3 -4 5 12 5 17 0 24 -2 18 -5z m248 -165 c-8 -9
-20 -14 -27 -11 -10 3 -8 12 7 36 10 18 20 50 20 72 2 32 3 28 8 -20 5 -45 3
-64 -8 -77z m-13 -50 c-2 -6 -11 -12 -19 -14 -7 -1 -20 -3 -28 -5 -8 -2 -17 4
-19 14 -3 14 3 17 33 17 23 0 35 -4 33 -12z m16 -62 c-3 -9 -12 -16 -20 -16
-8 0 -14 -5 -14 -11 0 -5 -5 -7 -10 -4 -14 9 7 35 26 35 8 0 14 5 14 12 0 6 2
9 5 6 3 -3 3 -13 -1 -22z m1 -36 c3 -5 1 -10 -4 -10 -6 0 -11 5 -11 10 0 6 2
10 4 10 3 0 8 -4 11 -10z m-45 -14 c0 -3 -4 -8 -10 -11 -5 -3 -10 -1 -10 4 0
6 5 11 10 11 6 0 10 -2 10 -4z m5 -56 c-3 -5 -12 -10 -18 -10 -7 0 -6 4 3 10
19 12 23 12 15 0z m4048 -147 c-9 -3 -13 -26 -13 -64 0 -37 -4 -58 -10 -54 -5
3 -7 27 -4 53 8 63 11 72 26 71 10 0 10 -2 1 -6z m307 -23 c0 -5 -6 -10 -14
-10 -8 0 -21 -3 -30 -6 -9 -3 -16 -1 -16 4 0 9 9 13 53 21 4 0 7 -3 7 -9z"/>
<path d="M4260 3650 c0 -5 5 -10 11 -10 5 0 7 5 4 10 -3 6 -8 10 -11 10 -2 0
-4 -4 -4 -10z"/>
<path d="M4745 2920 c-3 -5 -1 -10 4 -10 6 0 11 5 11 10 0 6 -2 10 -4 10 -3 0
-8 -4 -11 -10z"/>
<path d="M4446 5621 c-4 -5 3 -7 14 -4 23 6 26 13 6 13 -8 0 -17 -4 -20 -9z"/>
<path d="M9245 4840 c-11 -5 -36 -9 -55 -10 l-35 -2 40 -11 c22 -5 46 -16 53
-24 7 -7 22 -13 33 -13 15 0 19 7 19 35 0 37 -13 43 -55 25z"/>
<path d="M9100 4804 l-25 -15 34 5 c18 3 41 6 50 7 12 0 11 2 -4 9 -27 11 -26
12 -55 -6z"/>
<path d="M6445 4309 c-4 -6 -5 -12 -2 -15 2 -3 7 2 10 11 7 17 1 20 -8 4z"/>
<path d="M6478 4233 c7 -3 16 -2 19 1 4 3 -2 6 -13 5 -11 0 -14 -3 -6 -6z"/>
<path d="M4438 4201 c-27 -9 -48 -19 -48 -23 0 -11 24 -10 36 2 6 6 40 13 77
17 36 3 64 10 61 14 -8 14 -74 9 -126 -10z"/>
<path d="M4916 4140 c7 -7 19 -7 35 -1 23 9 22 10 -10 10 -24 1 -32 -2 -25 -9z"/>
<path d="M4330 4132 c-41 -4 -59 -17 -33 -24 20 -4 91 17 77 23 -5 3 -25 3
-44 1z"/>
<path d="M4219 4091 c-13 -11 -20 -23 -16 -27 4 -4 20 4 35 19 30 31 16 37
-19 8z"/>
<path d="M7230 4063 c-53 -8 -70 -14 -70 -27 0 -18 29 -25 132 -33 86 -6 88
-5 97 18 5 13 6 27 2 31 -7 8 -125 16 -161 11z"/>
<path d="M7775 4055 c-5 -2 -22 -6 -37 -9 -73 -16 9 -56 114 -56 68 0 74 2 84
25 11 23 10 24 -38 34 -47 11 -102 13 -123 6z"/>
<path d="M7457 3973 c-29 -8 -15 -37 23 -50 19 -7 66 -12 103 -12 l68 -1 -3
33 -3 32 -85 2 c-47 0 -93 -1 -103 -4z"/>
<path d="M7207 3901 c-82 -17 -70 -53 23 -71 29 -6 75 -7 101 -4 41 5 48 10
52 33 3 14 2 29 -1 33 -11 11 -134 17 -175 9z"/>
<path d="M7753 3888 c-35 -11 -42 -28 -20 -46 19 -16 150 -36 190 -28 30 6 34
10 33 36 -1 16 -8 32 -16 36 -29 11 -156 13 -187 2z"/>
<path d="M8200 3815 c-9 -22 -19 -34 -27 -31 -7 3 -13 0 -13 -7 -1 -14 -86
-57 -112 -57 -9 0 -17 -8 -17 -17 -1 -10 -2 -27 -2 -38 -1 -36 20 -99 37 -112
16 -12 15 -13 -9 -13 -15 0 -27 -4 -27 -10 0 -5 -14 -10 -31 -10 -16 0 -28 4
-24 9 3 6 -6 6 -25 1 -16 -5 -30 -5 -30 -1 0 11 -64 5 -89 -9 -12 -6 -26 -8
-31 -5 -6 4 -13 0 -16 -8 -3 -9 -16 -18 -30 -21 -13 -4 -24 -12 -24 -20 0 -7
-7 -19 -15 -26 -8 -7 -12 -16 -9 -21 3 -5 -1 -9 -9 -9 -10 0 -14 -16 -15 -60
0 -33 3 -60 8 -60 8 0 25 -48 22 -62 -1 -4 8 -10 21 -14 12 -4 25 -11 28 -16
4 -6 24 -14 45 -19 22 -4 51 -11 65 -14 17 -5 31 -2 40 7 7 8 24 12 37 10 18
-4 23 -1 17 7 -9 16 23 40 47 33 11 -3 18 1 18 10 0 8 11 25 25 38 13 12 22
27 19 31 -3 5 2 6 10 3 13 -5 16 2 16 35 0 23 -4 41 -10 41 -5 0 -10 12 -10
28 l1 27 24 -27 c13 -16 29 -28 35 -28 5 0 10 -19 11 -42 1 -37 2 -39 9 -18 8
24 8 24 9 3 1 -13 6 -23 11 -23 6 0 8 11 4 26 -4 17 -2 29 7 35 15 9 24 89 35
309 3 74 2 145 -3 158 -9 22 -9 22 -23 -13z"/>
<path d="M7246 3508 c-65 -25 -106 -84 -106 -154 0 -94 92 -151 208 -128 74
15 137 120 106 180 -8 14 -14 33 -14 41 0 8 -4 11 -10 8 -5 -3 -12 6 -16 20
-4 16 -12 24 -20 21 -7 -3 -14 -1 -16 5 -5 14 -99 20 -132 7z"/>
<path d="M8186 3252 c-4 -13 -5 -26 -2 -29 10 -11 18 4 14 29 l-4 23 -8 -23z"/>
<path d="M8161 3054 c0 -11 3 -14 6 -6 3 7 2 16 -1 19 -3 4 -6 -2 -5 -13z"/>
<path d="M7645 2689 c-22 -5 -43 -13 -48 -18 -29 -29 113 -68 201 -56 44 6 51
10 55 33 3 15 1 31 -3 36 -13 13 -158 17 -205 5z"/>
<path d="M8147 2556 c-55 -15 -61 -20 -54 -39 8 -21 85 -37 179 -37 l83 0 1
34 c0 35 0 35 -61 45 -75 13 -87 13 -148 -3z"/>
<path d="M7712 2546 c-60 -15 -67 -19 -59 -40 9 -23 79 -37 170 -34 l82 3 3
32 c4 36 -2 39 -88 47 -31 3 -78 -1 -108 -8z"/>
<path d="M7253 2525 c-46 -20 -42 -40 11 -54 48 -12 164 -15 190 -5 9 4 16 18
16 34 0 16 -7 30 -16 34 -30 11 -169 5 -201 -9z"/>
<path d="M7800 2403 c-58 -10 -90 -25 -90 -43 0 -29 68 -50 165 -50 83 0 85 1
85 24 0 13 3 31 6 39 9 24 -93 42 -166 30z"/>
<path d="M6987 2079 c-47 -27 -61 -123 -28 -194 34 -75 110 -118 141 -80 7 8
18 15 26 15 21 0 34 34 34 88 0 111 -102 212 -173 171z"/>
<path d="M7267 1999 c-81 -47 -49 -232 49 -285 30 -17 34 -16 76 3 62 30 72
45 65 98 -18 127 -119 225 -190 184z"/>
<path d="M7550 1902 c-27 -28 -30 -36 -30 -97 0 -94 45 -173 108 -188 29 -7
108 27 122 53 18 34 11 103 -15 156 -33 67 -61 92 -112 100 -38 6 -45 3 -73
-24z"/>
<path d="M6972 1583 c-21 -8 -42 -60 -42 -106 0 -47 37 -132 71 -163 12 -11
35 -18 57 -18 92 0 125 77 78 180 -41 90 -104 131 -164 107z"/>
<path d="M7248 1490 c-24 -15 -41 -84 -33 -134 8 -49 47 -119 77 -141 30 -21
60 -19 103 6 62 37 69 74 31 154 -38 79 -74 116 -121 121 -22 2 -48 0 -57 -6z"/>
<path d="M7531 1384 c-29 -37 -29 -131 0 -191 24 -49 75 -93 108 -93 56 0 111
61 111 123 0 35 -36 113 -67 146 -48 49 -120 56 -152 15z"/>
<path d="M9150 29 c-25 -4 -98 -8 -162 -8 -66 -1 -119 -5 -123 -11 -4 -7 70
-10 214 -10 214 0 221 1 221 20 0 18 -6 20 -52 19 -29 -1 -73 -5 -98 -10z"/>
</g>
</svg>
